<?xml version="1.0" standalone="no"?>
<!DOCTYPE svg PUBLIC "-//W3C//DTD SVG 1.1//EN" 
  "http://www.w3.org/Graphics/SVG/1.1/DTD/svg11.dtd">
<svg width="12cm" height="6cm" viewBox="0 0 1200 600"
     xmlns="http://www.w3.org/2000/svg" version="1.1">
  <title>Example quad01 - quadratic Bézier commands in path data</title>
  <desc>Picture showing a "Q" a "T" command,
        along with annotations showing the control points
        and end points</desc>
  <rect width="32" height="19" fill="pink" />
  <circle cx="23.6cm" cy="34.3" r="3.6" fill="#231f20"/>
  <path d="m49.6 34.3c0 4-3.2 7.2-7.2 7.2-4 0-7.2-3.2-7.2-7.2 0-4 3.2-7.2 7.2-7.2 3.9 0 7.2 3.2 7.2 7.2" fill="#fff"/>
  <g fill="#231f20">
      <circle cx="40.4" cy="34.3" r="3.6"/>
      <path d="m38 50.6c0 3.3-2.7 6-6 6-3.3 0-6-2.7-6-6 0-3.3 2.7-6 6-6 3.3 0 6 2.7 6 6"/>
      <g fill="indigo">
        <circle cx="50.8" cy="36" r="8" opacity=".8"/>
      </g>
  </g>
  <g fill="none">
    <rect x="1" y="1" width="1198" height="598"
        stroke="blue" stroke-width="1" />

    <path d="M200,300 Q400,50 600,300 T1000,300"
        stroke="red" stroke-width="5"  />
  </g>
</svg>